<?xml version="1.0" encoding="utf-8"?>
<!-- Generator: Adobe Illustrator 25.0.0, SVG Export Plug-In . SVG Version: 6.00 Build 0)  -->
<svg version="1.1" id="Layer_1" xmlns="http://www.w3.org/2000/svg" xmlns:xlink="http://www.w3.org/1999/xlink" x="0px" y="0px"
	 viewBox="0 0 330 350" style="enable-background:new 0 0 330 350;" xml:space="preserve">
<style type="text/css">
	.st0{fill:none;stroke:#7d7d7d;stroke-width:13;stroke-miterlimit:10;}
	.st1{fill:none;stroke:#7d7d7d;stroke-width:13;stroke-linecap:round;stroke-linejoin:round;stroke-miterlimit:10;}
</style>
<g id="hard">
	<circle class="st0" cx="169.6" cy="194.1" r="122.8"/>
	<path class="st1" d="M126.4,239.9c29,27,59,24,87,0"/>
	<path class="st1" d="M229.1,160.5c7.9,9.4,6.7,23.5-2.8,31.4s-23.5,6.7-31.4-2.8C212,174.8,212,174.8,229.1,160.5z"/>
	<path class="st1" d="M144.2,190.8c-7.9,9.4-22,10.7-31.4,2.8c-9.4-7.9-10.7-22-2.8-31.4C127.1,176.5,127.1,176.5,144.2,190.8z"/>
	<path class="st1" d="M72,119.7c-10.7-19.8-19.7-57.8,28.3-88.8c2,50,33.3,45.9,33.3,45.9S94.4,87.9,72,119.7z"/>
	<path class="st1" d="M268.3,119.7C279,100,288,62,240,31c-2,50-33.3,45.9-33.3,45.9S246,88,268.3,119.7z"/>
	<path class="st1" d="M81.5,279.5c-10.1,37.3,65.9,83.3,102.9,15.3"/>
	<polygon class="st1" points="194.8,269 167.5,289.3 198.7,302.8 	"/>
	<g>
		<circle class="st1" cx="123.4" cy="185.9" r="7"/>
		<circle class="st1" cx="210.4" cy="185.9" r="7"/>
	</g>
</g>
</svg>
